<svg width="120" height="130" viewBox="0 0 120 130" fill="none" xmlns="http://www.w3.org/2000/svg">
<path d="M119.635 114.44L95.783 31.4071C93.9751 24.9124 90.5853 19.1439 86.0124 14.7798C84.7859 13.6395 83.4921 12.5975 82.1403 11.6613C78.7525 9.39599 75.0434 7.83015 71.1822 7.03519L69.5301 6.66569C64.4807 5.55559 59.2731 5.83931 54.3385 7.49336C51.2286 8.53872 47.8924 8.24971 44.9551 6.68047C41.5049 5.00557 38.2906 2.75428 35.4169 0C34.9022 2.03651 34.8235 4.18503 35.1874 6.26374C35.5514 8.34245 36.3473 10.2902 37.5078 11.9421C34.2165 10.1833 25.5817 5.8528 18.8055 5.12859C10.4547 4.21224 3.42036 5.64588 0 12.7402L36.1397 29.1605C37.3089 29.6867 38.3708 30.4832 39.2591 31.5004C40.1474 32.5176 40.843 33.7336 41.3025 35.0725L39.1599 34.4369C35.8637 33.445 32.3886 33.5527 29.144 34.7473L7.06014 42.8762C10.8085 46.7232 15.598 48.9775 20.6254 49.2611C26.8595 49.7636 40.3086 46.0982 40.3086 46.0982C36.2731 47.7181 32.7002 50.5688 29.9753 54.3428C27.2505 58.1168 25.477 62.6709 24.846 67.5141C24.0458 73.5147 25.7882 78.4364 27.7759 83.7719C30.6881 77.9348 35.1192 73.2845 40.4506 70.4701C38.3141 74.4029 36.9733 78.8335 36.5267 83.4369C36.08 88.0403 36.5387 92.6998 37.8692 97.0737L47.7947 89.1518C47.7947 89.1518 46.8267 124.254 73.7765 129.146V128.791C68.8525 117.35 67.7818 104.233 70.7692 91.9451C71.5668 96.6458 72.7421 101.252 74.2799 105.705C76.0179 110.827 78.7591 115.424 82.2923 119.141C85.8256 122.859 90.0567 125.599 94.6601 127.151C95.9962 127.61 97.3655 127.931 98.7516 128.111L95.3958 105.942C105.205 119.421 119.635 114.44 119.635 114.44ZM57.0748 32.6634C55.8837 32.562 54.7457 32.0577 53.8053 31.2145C52.865 30.3712 52.1645 29.2271 51.793 27.9272C51.4214 26.6274 51.3955 25.2304 51.7185 23.9137C52.0415 22.5969 52.6989 21.4197 53.6071 20.5315C54.5154 19.6433 55.6336 19.0841 56.8199 18.9249C58.0062 18.7657 59.2071 19.0137 60.2701 19.6374C61.3331 20.261 62.2103 21.2323 62.7904 22.4279C63.3705 23.6234 63.6274 24.9894 63.5283 26.3524C63.3999 28.1676 62.6488 29.8507 61.4393 31.0334C60.2299 32.2161 58.6606 32.8022 57.0748 32.6634Z" fill="#ECF7FE"/>
</svg>
